<svg xmlns="http://www.w3.org/2000/svg" xmlns:xlink="http://www.w3.org/1999/xlink" width="1.5em" height="1em" preserveAspectRatio="xMidYMid meet" viewBox="0 0 2304 1536" style="-ms-transform: rotate(360deg); -webkit-transform: rotate(360deg); transform: rotate(360deg);"><path fill="currentColor" d="m1774 708l18 316q4 69-82 128t-235 93.5t-323 34.5t-323-34.5t-235-93.5t-82-128l18-316l574 181q22 7 48 7t48-7zm530-324q0 23-22 31L1162 767q-4 1-10 1t-10-1L490 561q-43 34-71 111.5T385 851q63 36 63 109q0 69-58 107l58 433q2 14-8 25q-9 11-24 11H224q-15 0-24-11q-10-11-8-25l58-433q-58-38-58-107q0-73 65-111q11-207 98-330L22 415q-22-8-22-31t22-31L1142 1q4-1 10-1t10 1l1120 352q22 8 22 31z"/></svg>